<svg width="28" height="28" viewBox="0 0 28 28" fill="none" xmlns="http://www.w3.org/2000/svg">
<path d="M14 0C21.732 0 28 6.26801 28 14C28 21.732 21.732 28 14 28C6.26801 28 0 21.732 0 14C0 6.26801 6.26801 0 14 0ZM9 8.16699C8.53976 8.16699 8.16699 8.53976 8.16699 9C8.16699 10.2895 8.43605 12.0131 9.17285 13.707C10.0639 15.7563 11.6569 17.8025 14.2959 18.9375C15.6163 19.5053 17.1748 19.833 19 19.833C19.4602 19.833 19.833 19.4602 19.833 19V16.5C19.833 16.1176 19.5731 15.7841 19.2021 15.6914L16.7021 15.0664C16.4281 14.9979 16.1408 15.0733 15.9365 15.2607L15.8545 15.3477L14.3936 17.1357C12.7717 16.2834 11.6756 14.9878 10.9629 13.5928L12.667 12.1328C12.9066 11.9274 13.0101 11.6041 12.9336 11.2979L12.3086 8.79785C12.2159 8.42688 11.8824 8.16699 11.5 8.16699H9Z" fill="white"/>
</svg>
