<svg width="30" height="30" viewBox="0 0 30 30" fill="none" xmlns="http://www.w3.org/2000/svg">
<path fill-rule="evenodd" clip-rule="evenodd" d="M2.71125 12.6165C2.59106 12.8693 0.566368 22.7021 0.42199 23.4285C0.163848 24.7295 -0.252656 25.8713 0.203911 27.1748C0.583376 28.2584 1.34042 29.0362 2.28038 29.4849C3.39459 30.0166 4.91887 29.8598 6.25304 29.8598H23.6986C25.1084 29.8598 26.5283 30.017 27.6686 29.4297C28.5644 28.9682 29.2961 28.2176 29.6593 27.0905C30.0728 25.807 29.6408 24.5356 29.3913 23.3076L27.3216 13.4351C27.288 13.2756 27.2612 13.1475 27.2317 12.9891C27.1803 12.7181 27.1897 12.7174 27.082 12.6225C26.5453 13.2004 24.4432 15.8612 23.8781 16.5517C23.3267 17.2252 22.9257 17.7812 21.8232 18.0934C20.9369 18.344 19.4349 18.1652 18.4284 18.2226C18.3438 19.5096 18.6389 20.4231 17.8403 21.2428C17.0772 22.0263 16.2287 21.8695 14.9229 21.8695C13.605 21.8695 12.721 22.0067 11.9741 21.2213C11.2122 20.4193 11.4866 19.4759 11.4125 18.2298C10.369 18.1058 8.93008 18.381 7.97878 18.0851C6.89859 17.7491 6.49796 17.2177 5.93934 16.5271C5.39849 15.8593 4.87956 15.2164 4.32889 14.544C4.10023 14.2651 2.89456 12.7132 2.71125 12.6165Z" fill="#F2DDC8"/>
<path fill-rule="evenodd" clip-rule="evenodd" d="M11.4061 16.4553C11.552 15.2289 11.2186 14.4919 12.0403 13.6997C12.8041 12.9631 13.7173 13.1233 14.9229 13.1233C16.1188 13.1233 17.0432 12.9933 17.7821 13.6698C18.6477 14.4624 18.2727 15.2293 18.436 16.4606C19.2947 16.4969 21.1607 16.5956 21.7612 16.2316C22.1256 16.0109 22.352 15.6609 22.6351 15.3083L25.0997 12.2748C25.3858 11.929 25.6266 11.6368 25.9062 11.2831C26.0423 11.1111 26.1606 10.9686 26.3095 10.7872C26.4516 10.6141 26.6667 10.461 26.6448 10.1972C26.6194 9.8956 26.3961 9.03689 26.2744 8.77421C25.4871 7.07645 23.6918 7.35538 22.2186 7.35538C17.3724 7.35538 12.5267 7.35538 7.6806 7.35538C5.61017 7.35538 3.62517 7.01068 3.20186 10.1507C3.15688 10.4863 3.55487 10.8084 3.88898 11.2294L6.35587 14.2587C7.8915 16.1443 7.74976 16.4659 9.58359 16.4656C10.1471 16.4656 10.8607 16.5037 11.4061 16.4553Z" fill="#F2DDC8"/>
<path fill-rule="evenodd" clip-rule="evenodd" d="M8.67836 5.60469H12.174L12.1805 3.50818L17.6589 3.49911V5.60469L21.158 5.60431C21.158 4.60878 21.1576 3.61741 21.1584 2.62604C21.1587 1.60217 20.8515 0.969852 20.3004 0.527269C19.5577 -0.0687624 18.9848 0.00267046 17.8834 0.00267046H11.9628C10.8433 0.00267046 10.2892 -0.0680063 9.54122 0.522734C9 0.950198 8.67722 1.6033 8.67798 2.62604C8.67911 3.61892 8.67836 4.6118 8.67836 5.60469Z" fill="#F2DDC8"/>
<path fill-rule="evenodd" clip-rule="evenodd" d="M16.5621 14.9424C16.2858 14.7851 13.4319 14.8694 13.3521 14.8993C13.0611 15.0085 13.1684 15.5225 13.1688 15.7897C13.1696 16.5524 13.0819 19.5549 13.2244 20.0311C13.546 20.1834 16.3017 20.1385 16.4419 20.1033C16.7564 20.0243 16.6713 19.5976 16.6709 19.2257C16.6698 18.4857 16.6706 17.7456 16.6706 17.0056C16.6706 16.5505 16.7979 15.2334 16.5621 14.9424Z" fill="#F2DDC8"/>
</svg>
