<svg width="14" height="11" viewBox="0 0 14 11" fill="none" xmlns="http://www.w3.org/2000/svg">
<path d="M1.35949 0H11.7131C12.0877 0 12.4278 0.153071 12.6739 0.39874C12.9196 0.644788 13.0726 0.984946 13.0726 1.3595V8.90797C13.0726 9.28252 12.9196 9.62305 12.6739 9.86872C12.4278 10.1148 12.0877 10.2675 11.7131 10.2675H1.35949C0.984944 10.2675 0.644789 10.1148 0.398742 9.86872C0.152695 9.62305 0 9.28252 0 8.90797V1.3595C0 0.984946 0.152695 0.644788 0.398742 0.39874C0.644789 0.153071 0.984944 0 1.35949 0ZM1.60592 1.00989L6.54426 5.43194L11.2785 1.00989H1.60592ZM12.0627 1.65543L6.89537 6.48265C6.70715 6.65726 6.41197 6.66331 6.21694 6.48869L1.00951 1.82551V8.90797C1.00951 9.00397 1.04957 9.09165 1.11269 9.15477C1.17581 9.21789 1.26349 9.25795 1.35949 9.25795H11.7131C11.8088 9.25795 11.8968 9.21789 11.9599 9.15477C12.0231 9.09165 12.0627 9.00397 12.0627 8.90797V1.65543Z" fill="#D9D6D4"/>
</svg>
