<svg width="14" height="11" viewBox="0 0 14 11" fill="none" xmlns="http://www.w3.org/2000/svg">
<path d="M1.3595 0H11.7131C12.0877 0 12.4278 0.153071 12.6739 0.39874C12.9196 0.644788 13.0726 0.984946 13.0726 1.3595V8.90797C13.0726 9.28252 12.9196 9.62305 12.6739 9.86872C12.4278 10.1148 12.0877 10.2675 11.7131 10.2675H1.3595C0.984953 10.2675 0.644798 10.1148 0.398751 9.86872C0.152704 9.62305 0 9.28252 0 8.90797V1.3595C0 0.984946 0.152704 0.644788 0.398751 0.39874C0.644798 0.153071 0.984953 0 1.3595 0ZM1.60593 1.00989L6.54427 5.43194L11.2785 1.00989H1.60593ZM12.0627 1.65543L6.89539 6.48265C6.70717 6.65726 6.41198 6.66331 6.21695 6.48869L1.00951 1.82551V8.90797C1.00951 9.00397 1.04959 9.09165 1.11271 9.15477C1.17583 9.21789 1.2635 9.25795 1.3595 9.25795H11.7131C11.8088 9.25795 11.8968 9.21789 11.96 9.15477C12.0231 9.09165 12.0627 9.00397 12.0627 8.90797V1.65543Z" fill="#674126"/>
</svg>
