<svg width="39" height="39" viewBox="0 0 39 39" fill="none" xmlns="http://www.w3.org/2000/svg">
<path fill-rule="evenodd" clip-rule="evenodd" d="M14.3853 27.4069C13.4336 27.8287 12.8399 29.124 11.4316 29.1123C8.96208 26.4991 7.71861 11.6637 17.3863 9.74331C20.6707 9.09096 22.9883 9.84649 25.1434 11.271C31.6169 15.5506 30.6044 26.3101 22.0922 28.6504C19.7553 29.2929 18.2008 29.1497 15.9712 28.2573C15.3427 28.0056 14.9621 27.6624 14.3853 27.4069ZM11.2003 35.8727C12.3308 36.1184 13.4601 38.2477 18.5428 38.5085C33.8858 39.2958 43.1993 23.6433 36.9026 10.7959C34.7301 6.36327 31.2318 3.08718 26.4825 1.23521C16.6976 -2.5806 4.40472 2.71338 0.966864 13.4072C-1.59414 21.3729 1.61732 27.9285 2.73531 34.5997C2.99874 36.1724 2.46545 37.8558 3.96138 38.4481C6.22797 39.3457 9.44321 37.5194 11.2003 35.8727Z" fill="#B56E39"/>
</svg>
