<svg width="31" height="30" viewBox="0 0 31 30" fill="none" xmlns="http://www.w3.org/2000/svg">
<path d="M9.17135 9.73191C9.17135 10.3517 8.66831 10.8552 8.04809 10.8552C7.42787 10.8552 6.9248 10.3517 6.9248 9.73191V4.11931C6.9248 2.98658 7.38893 1.95477 8.13501 1.20869C8.87958 0.464128 9.91139 0 11.0437 0H26.231C27.3603 0 28.391 0.464128 29.1367 1.20869C29.8858 1.95931 30.3503 2.98961 30.3503 4.11931V25.3217C30.3503 26.454 29.8858 27.4862 29.1412 28.2308C28.3955 28.9765 27.3634 29.441 26.231 29.441H11.0437C9.91592 29.441 8.88525 28.975 8.13955 28.2308C7.38894 27.4787 6.9248 26.4495 6.9248 25.3217V19.7106C6.9248 19.0904 7.42787 18.5873 8.04809 18.5873C8.66831 18.5873 9.17135 19.0904 9.17135 19.7106V25.3217C9.17135 25.8384 9.38264 26.3089 9.71826 26.643C10.0569 26.9828 10.5271 27.1941 11.0437 27.1941H26.231C26.7446 27.1941 27.2152 26.9813 27.5535 26.643C27.8921 26.3044 28.1034 25.8353 28.1034 25.3217V4.11931C28.1034 3.60378 27.8921 3.13209 27.555 2.79496C27.2182 2.45783 26.7462 2.24693 26.231 2.24693H11.0437C10.5301 2.24693 10.0614 2.45783 9.7228 2.79647C9.38415 3.13512 9.17135 3.60529 9.17135 4.11931V9.73191Z" fill="white"/>
<path fill-rule="evenodd" clip-rule="evenodd" d="M14.4953 10.1782C14.0474 9.75418 14.0277 9.04552 14.4518 8.59765C14.8755 8.14977 15.5841 8.1305 16.032 8.55418L21.7746 13.9797C22.224 14.4038 22.2467 15.1151 21.8226 15.5645C19.9907 17.3964 17.9237 19.2476 16.032 21.0376C15.5841 21.4616 14.8755 21.4424 14.4518 20.9945C14.0277 20.5466 14.0474 19.838 14.4953 19.4139L19.3739 14.7961L14.4953 10.1782Z" fill="white"/>
<path d="M1.11458 15.8339C0.49738 15.8324 -0.00150838 15.3279 3.42694e-06 14.7107C0.00151524 14.0935 0.50645 13.5949 1.12327 13.5961L21.0108 13.677C21.628 13.6785 22.1269 14.1834 22.1254 14.8006C22.1238 15.4178 21.6189 15.9163 21.0017 15.9148L1.11458 15.8339Z" fill="white"/>
</svg>
