<svg width="19" height="19" viewBox="0 0 19 19" fill="none" xmlns="http://www.w3.org/2000/svg">
<path d="M4.875 0.5C5.375 0.5 7.375 5 7.375 5.5C7.375 6.5 5.875 7.5 5.375 8.5C4.875 9.5 5.875 10.5 6.875 11.5C7.265 11.89 8.875 13.5 9.875 13C10.875 12.5 11.875 11 12.875 11C13.375 11 17.875 13 17.875 13.5C17.875 15.5 16.375 17 14.875 17.5C13.375 18 12.375 18 10.375 17.5C8.375 17 6.875 16.5 4.375 14C1.875 11.5 1.375 10 0.875 8C0.375 6 0.375 5 0.875 3.5C1.375 2 2.875 0.5 4.875 0.5Z" stroke="#564D49" stroke-linecap="round" stroke-linejoin="round"/>
</svg>
