<svg width="12" height="14" viewBox="0 0 12 14" fill="none" xmlns="http://www.w3.org/2000/svg">
<path d="M6.84133 8.94992C6.93431 8.90759 7.10287 8.7995 7.27483 8.68913L7.29639 8.67553C7.63314 8.45858 7.97556 8.23861 8.304 8.21443L8.47635 8.20611C8.58369 8.20611 8.69293 8.21556 8.80102 8.23332C8.90836 8.25146 9.01607 8.27868 9.12038 8.31345C9.22507 8.3486 9.32675 8.39244 9.42162 8.44271C9.51837 8.49449 9.60984 8.55231 9.69563 8.61732L10.0165 8.85619C10.4625 9.18614 10.9138 9.52025 11.3325 9.86986C11.418 9.93713 11.4943 10.0131 11.5601 10.0932C11.6292 10.1786 11.6889 10.2705 11.7362 10.3654C11.7868 10.467 11.8265 10.5747 11.8526 10.6843C11.8779 10.7943 11.8919 10.907 11.8919 11.0185C11.8919 11.1009 11.884 11.1848 11.8696 11.2671C11.8556 11.348 11.8329 11.4312 11.8038 11.5128C11.7759 11.5903 11.7411 11.6666 11.7007 11.7381C11.6595 11.8103 11.6137 11.8787 11.5654 11.9384C11.1776 12.4377 10.7769 12.997 10.3707 13.4729C10.3283 13.5224 10.2814 13.567 10.2331 13.6044C10.182 13.643 10.1272 13.6781 10.0709 13.7057C10.0052 13.7382 9.93715 13.7632 9.86874 13.779C9.79844 13.7949 9.727 13.804 9.65708 13.804L9.57204 13.7983C8.25034 13.6792 6.99629 13.3225 5.85866 12.7725C4.68662 12.2067 3.63554 11.4338 2.75944 10.506C1.88826 9.58299 1.18753 8.50394 0.710931 7.31868C0.252475 6.17991 0 4.94098 0 3.648C0.00151181 3.408 0.0105812 3.17178 0.0268332 2.94198C0.0434631 2.70917 0.068794 2.47635 0.101298 2.24693C0.133802 2.01827 0.175747 1.78734 0.225258 1.55792C0.274392 1.33153 0.332222 1.10438 0.398364 0.877985L0.40139 0.867402C0.422178 0.801638 0.45129 0.738898 0.487574 0.682205C0.524613 0.623622 0.569968 0.570331 0.619857 0.525732L0.659535 0.493228C0.709047 0.455055 0.760453 0.423685 0.815256 0.39874C0.869681 0.373795 0.928265 0.354898 0.986848 0.343937C1.80134 0.20863 2.67817 0.0691654 3.50703 0C3.67975 0 3.84795 0.0302366 4.00517 0.0854177C4.16656 0.142111 4.31735 0.226772 4.44964 0.332599C4.58154 0.438803 4.69682 0.566929 4.7864 0.711685C4.87408 0.852661 4.94022 1.0114 4.97726 1.18072L4.97801 1.18526C5.03433 1.49291 5.09708 1.79112 5.15869 2.0897C5.23503 2.45594 5.31139 2.82331 5.37337 3.18161C5.39529 3.31427 5.39529 3.41065 5.40814 3.53953C5.40814 3.63024 5.40133 3.72208 5.3881 3.81241C5.37487 3.90236 5.35447 3.99383 5.32801 4.0834C5.30269 4.16958 5.2698 4.2565 5.23049 4.34268C5.19194 4.42658 5.14734 4.50822 5.09821 4.58494C5.0109 4.72101 4.87521 4.83893 4.71723 4.94627C4.57588 5.04227 4.40807 5.13449 4.23988 5.22595L3.8967 5.41833C4.02293 5.76529 4.17638 6.10016 4.35515 6.41839C4.55357 6.77216 4.78413 7.10778 5.04227 7.41997C5.30268 7.73518 5.59069 8.02583 5.90023 8.28661C6.19164 8.53191 6.50684 8.75452 6.84133 8.94992ZM7.8497 9.55087C7.73518 9.62495 7.62143 9.69827 7.5122 9.76139C7.40826 9.82186 7.30319 9.87628 7.19887 9.91786C7.12404 9.98929 7.02993 10.0358 6.93128 10.0532C6.82319 10.0721 6.70641 10.0562 6.60096 10.001C6.1459 9.76063 5.71918 9.47603 5.32686 9.15666C4.93039 8.83351 4.56643 8.47257 4.24328 8.08139C3.91975 7.68983 3.63288 7.26425 3.38986 6.81411C3.14986 6.36888 2.95144 5.89682 2.80063 5.40624C2.77871 5.33291 2.7723 5.25581 2.78288 5.18135C2.79308 5.10917 2.81991 5.03698 2.86187 4.97197C2.95144 4.83402 3.08712 4.71572 3.24548 4.60876C3.39591 4.50784 3.56561 4.41449 3.73455 4.32302L4.07471 4.13178C4.15597 4.08227 4.21531 4.04296 4.22589 4.02558L4.28825 3.91181L4.334 3.79124L4.36083 3.66652C4.36612 3.59093 4.37103 3.53159 4.36687 3.45676C4.34041 3.22998 4.28864 2.93329 4.22779 2.62299C4.14389 2.19402 4.04221 1.74123 3.96359 1.40447C3.95188 1.34967 3.93148 1.30016 3.90502 1.25707C3.87667 1.21247 3.84076 1.17203 3.8007 1.13991C3.76139 1.10816 3.71453 1.08208 3.66426 1.06507C3.61588 1.04806 3.56258 1.03861 3.50703 1.03861L3.46129 1.0405C2.9658 1.11496 2.43024 1.18904 1.89582 1.26274L1.34363 1.33946C1.3013 1.49669 1.26312 1.65543 1.22986 1.81304C1.19055 2.00126 1.15655 2.19591 1.12782 2.3932C1.09797 2.60183 1.07529 2.81235 1.06017 3.02173C1.04467 3.23452 1.03636 3.44428 1.03636 3.648C1.03674 4.80605 1.26389 5.91647 1.6751 6.9377C2.10294 7.99975 2.73184 8.96768 3.5142 9.79616C4.30488 10.6337 5.25316 11.3306 6.3103 11.8416C7.32283 12.3315 8.43743 12.6516 9.60984 12.7627L9.80902 12.494C10.1136 12.079 10.5222 11.523 10.7618 11.286L10.7989 11.2305L10.8299 11.1643L10.8476 11.0956L10.8537 11.0185C10.8537 10.9837 10.8499 10.9497 10.8427 10.9187C10.8355 10.8862 10.8238 10.8548 10.8102 10.8265L10.7607 10.7505L10.6995 10.6889L9.82867 10.0422C9.48851 9.78595 9.1646 9.53575 9.06369 9.43861C9.02287 9.408 8.97941 9.38041 8.93594 9.35736C8.88983 9.33279 8.84033 9.31124 8.79157 9.29499C8.74206 9.27836 8.69028 9.26551 8.63812 9.2572C8.5871 9.24926 8.53266 9.24472 8.47635 9.24472L8.38073 9.24926C8.31157 9.25417 8.08215 9.40158 7.85651 9.54633L7.8497 9.55087Z" fill="#674126"/>
</svg>
