<svg width="12" height="15" viewBox="0 0 12 15" fill="none" xmlns="http://www.w3.org/2000/svg">
<path d="M5.74904 0C6.52649 0 7.26954 0.155716 7.94683 0.435779C8.65096 0.727181 9.28479 1.1554 9.81392 1.68491C10.3438 2.21443 10.7717 2.84825 11.0631 3.55087C11.3431 4.22929 11.4988 4.97235 11.4988 5.74942C11.4988 6.43654 11.3053 7.23553 10.9878 8.05984C10.6337 8.97827 10.125 9.93373 9.55918 10.8045C8.92044 11.7891 8.19099 12.6811 7.51219 13.3164C6.8485 13.9385 6.22035 14.321 5.74904 14.321C5.27773 14.321 4.64995 13.9381 3.98627 13.3164C3.30747 12.6811 2.57839 11.7895 1.93928 10.8045C1.37348 9.93184 0.864378 8.97751 0.510615 8.05984C0.193512 7.23439 0 6.43578 0 5.74942C0 4.97197 0.154962 4.22853 0.435781 3.55087C0.72756 2.8475 1.15502 2.21405 1.68454 1.68529C2.21367 1.1554 2.8475 0.727937 3.55124 0.436913C4.22891 0.154961 4.97235 0 5.74904 0ZM5.74904 3.46356C6.05783 3.46356 6.35339 3.52517 6.62287 3.63704C6.9018 3.75269 7.15465 3.92315 7.36517 4.13329C7.57531 4.34305 7.74539 4.59591 7.86142 4.87597C7.97367 5.14507 8.03528 5.44063 8.03528 5.74942C8.03528 6.05594 7.97367 6.35187 7.8618 6.62135C7.74614 6.90028 7.57569 7.15313 7.36554 7.36403C7.15502 7.57493 6.90255 7.74539 6.62324 7.86142C6.35339 7.97329 6.05745 8.03528 5.74904 8.03528C5.44252 8.03528 5.14734 7.97329 4.87786 7.8618C4.59817 7.74614 4.34532 7.57569 4.13443 7.36554C3.92353 7.15389 3.75269 6.90066 3.63704 6.62173C3.52554 6.35112 3.46356 6.05594 3.46356 5.74942C3.46356 5.44063 3.52517 5.14507 3.63704 4.87597C3.75345 4.59591 3.92353 4.34305 4.13329 4.13329C4.34532 3.92315 4.59817 3.75269 4.8771 3.63704C5.14621 3.52517 5.44139 3.46356 5.74904 3.46356ZM6.61758 4.88126C6.50532 4.76863 6.36926 4.67679 6.21959 4.61518C6.07559 4.55584 5.91647 4.52258 5.74904 4.52258C5.58161 4.52258 5.42211 4.55584 5.27849 4.61518C5.12958 4.67679 4.99427 4.76787 4.88126 4.88126C4.66129 5.10085 4.52258 5.40964 4.52258 5.74942C4.52258 5.91685 4.55584 6.07635 4.61518 6.21997C4.67679 6.36926 4.76825 6.50494 4.88126 6.61757C4.99427 6.73096 5.12958 6.82205 5.27887 6.88365C5.42287 6.94299 5.58199 6.97587 5.74904 6.97587C5.91647 6.97587 6.07559 6.94299 6.21884 6.88365C6.36926 6.82205 6.50532 6.72983 6.61758 6.61757C6.73096 6.50457 6.82205 6.36888 6.88365 6.21959C6.94299 6.07559 6.97625 5.91609 6.97625 5.74942C6.97625 5.58236 6.94299 5.42324 6.88365 5.28C6.82205 5.12957 6.72983 4.99351 6.61758 4.88126ZM9.06671 2.43213C8.63433 2.00013 8.11692 1.6509 7.54432 1.4143C6.99251 1.18602 6.38551 1.0594 5.74904 1.0594C5.11257 1.0594 4.50595 1.18602 3.95414 1.4143C3.38192 1.6509 2.86451 2.00013 2.43213 2.43213C1.99975 2.86488 1.6509 3.38192 1.4143 3.95452C1.18602 4.50633 1.0594 5.11294 1.0594 5.74942C1.0594 6.3258 1.23213 7.01442 1.51635 7.73707C1.8395 8.56101 2.30665 9.42992 2.82558 10.2297C3.38872 11.0982 4.00365 11.884 4.55244 12.4411C5.05172 12.949 5.48372 13.262 5.74904 13.262C6.01474 13.262 6.44674 12.949 6.9464 12.4411C7.49518 11.8836 8.11011 11.0974 8.67288 10.2297C9.19181 9.42992 9.65896 8.56101 9.98211 7.73707C10.266 7.01442 10.4391 6.3258 10.4391 5.74942C10.4391 5.11294 10.3124 4.50595 10.0842 3.95414C9.84756 3.38192 9.49871 2.8645 9.06671 2.43213Z" fill="#D9D6D4"/>
</svg>
