<svg width="745" height="535" viewBox="0 0 745 535" fill="none" xmlns="http://www.w3.org/2000/svg">
<rect width="745" height="535" fill="#F2DDC8"/>
<path d="M301.333 359C295.742 359 290.957 357.011 286.978 353.032C282.999 349.054 281.007 344.265 281 338.667V196.333C281 190.742 282.993 185.957 286.978 181.978C290.963 177.999 295.748 176.007 301.333 176H443.667C449.258 176 454.047 177.993 458.032 181.978C462.017 185.963 464.007 190.748 464 196.333V338.667C464 344.258 462.011 349.047 458.032 353.032C454.054 357.017 449.265 359.007 443.667 359H301.333ZM311.5 318.333H433.5L395.375 267.5L364.875 308.167L342 277.667L311.5 318.333Z" fill="#FDF8F4"/>
</svg>
