<svg width="25" height="25" viewBox="0 0 25 25" fill="none" xmlns="http://www.w3.org/2000/svg">
<path d="M19.206 10.9259C19.206 8.63962 18.2789 6.5692 16.7807 5.07099C15.2825 3.57279 13.2121 2.64567 10.9259 2.64567C8.63962 2.64567 6.56919 3.57279 5.07099 5.07099C3.57278 6.5692 2.64567 8.63962 2.64567 10.9259C2.64567 13.2121 3.57278 15.2825 5.07099 16.7807C6.56919 18.2789 8.63962 19.206 10.9259 19.206C13.2121 19.206 15.2825 18.2789 16.7807 16.7807C18.2789 15.2825 19.206 13.2121 19.206 10.9259ZM19.5303 17.6595L24.61 22.7803C25.0454 23.2176 25.0413 23.9274 24.6036 24.3628C24.1663 24.7979 23.4565 24.7937 23.0211 24.3564L17.9777 19.2714C16.0747 20.8808 13.6131 21.8517 10.9259 21.8517C7.90904 21.8517 5.17719 20.6287 3.20012 18.6516C1.22305 16.6745 0 13.9427 0 10.9259C0 7.90904 1.22305 5.1772 3.20012 3.20013C5.17719 1.22305 7.90904 0 10.9259 0C13.9427 0 16.6745 1.22305 18.6516 3.20013C20.6287 5.1772 21.8517 7.90904 21.8517 10.9259C21.8517 13.4661 20.9843 15.8041 19.5303 17.6595Z" fill="white"/>
</svg>
