<svg width="15" height="15" viewBox="0 0 15 15" fill="none" xmlns="http://www.w3.org/2000/svg">
<path d="M7.13771 8.54095C7.91296 8.54095 8.54143 7.91249 8.54143 7.13724C8.54143 6.36199 7.91296 5.73352 7.13771 5.73352C6.36246 5.73352 5.73401 6.36199 5.73401 7.13724C5.73401 7.91249 6.36246 8.54095 7.13771 8.54095Z" fill="#674126"/>
<path d="M7.13764 0C9.10678 0 10.8911 0.79937 12.1826 2.09046C13.4755 3.38381 14.2749 5.16775 14.2749 7.13726C14.2749 9.10677 13.4755 10.8911 12.1845 12.1826C10.8911 13.4755 9.10678 14.2749 7.13764 14.2749C5.16775 14.2749 3.38382 13.4755 2.09236 12.1844C0.799383 10.8911 0 9.10677 0 7.13726C0 5.16775 0.799372 3.38381 2.09046 2.09235C3.38381 0.79937 5.16775 0 7.13764 0ZM11.489 2.78589C10.3759 1.67358 8.83692 0.984945 7.13764 0.984945C5.43761 0.984945 3.89898 1.67358 2.78591 2.78589C1.67359 3.89896 0.984947 5.43761 0.984947 7.13726C0.984947 8.83654 1.67359 10.3759 2.78591 11.489C3.89898 12.6013 5.43761 13.29 7.13764 13.29C8.83692 13.29 10.3759 12.6013 11.489 11.489C12.6013 10.3759 13.29 8.83654 13.29 7.13726C13.29 5.43761 12.6013 3.89896 11.489 2.78589Z" fill="#674126"/>
<path d="M6.49969 3.24399C6.49024 2.973 6.70228 2.74547 6.97289 2.73602C7.24388 2.72657 7.47141 2.9386 7.48086 3.20922L7.62071 6.92865L9.69491 9.03612C9.88502 9.22925 9.88199 9.54068 9.68885 9.73079C9.49572 9.9209 9.18466 9.91788 8.99455 9.72475L6.65427 7.34667L6.49969 3.24399Z" fill="#674126"/>
</svg>
