<svg width="55" height="33" viewBox="0 0 55 33" fill="none" xmlns="http://www.w3.org/2000/svg">
<path fill-rule="evenodd" clip-rule="evenodd" d="M50.9351 0.0466038H48.249C46.1479 0.0466038 44.1161 -0.332482 43.181 1.31199L41.1295 5.62934C40.7508 6.37996 40.4306 6.94802 40.0085 7.69334C39.1305 9.24295 34.343 17.1403 32.4211 15.6443C31.7944 15.1564 31.9071 13.8797 31.9074 12.9473L31.9067 3.39338C31.9158 -0.0546874 32.1346 -0.0887032 26.2616 0.0466038C25.0381 0.0466038 23.8022 0.0545411 22.5807 0.0450923C21.2798 0.0348876 20.0994 -0.149554 19.4996 0.70273C18.5003 2.12156 20.8504 2.92585 21.4831 5.87501C21.8652 7.65668 21.6589 11.0961 21.6695 13.1464C21.68 15.2324 22.2322 19.5769 19.6595 17.9619C16.4193 15.9282 12.1613 6.73221 10.7391 2.49271C9.80703 -0.285239 8.67846 -0.0407033 4.87134 0.0466038C1.76155 0.117659 -0.478958 -0.583443 0.0879709 2.71155C0.713483 6.34745 3.50391 12.1653 5.29843 15.2082C5.49912 15.5487 5.59474 15.7369 5.77881 16.0227C8.58019 20.3665 9.22422 21.9384 13.3375 26.1764L14.7098 27.3862C17.9889 30.05 21.6385 32.0252 26.1652 32.4489C28.0319 32.6235 31.6708 32.8487 31.8882 30.6445C31.9626 29.8867 31.9089 28.8606 31.9074 28.0748C31.9059 27.0472 31.7479 23.9196 32.1864 23.254C33.2106 21.6984 36.2898 23.8841 37.3371 24.753C37.6145 24.9832 37.7495 25.1155 38.0356 25.3524C40.1033 27.0668 41.7898 29.2718 43.6708 31.1653C44.8039 32.306 45.3535 32.5093 47.3536 32.5112C49.034 32.5124 50.7537 32.5456 52.4299 32.5101C54.0959 32.4746 55.0873 31.5822 54.3941 29.8784C53.4462 27.5472 49.9535 23.4022 47.8072 21.252C47.4326 20.8771 46.9764 20.4844 46.5297 20.0346C43.585 17.0711 44.5636 17.2431 47.8937 12.1955L49.8768 9.09706C50.2268 8.54676 50.5394 8.03199 50.8123 7.55539C51.6483 6.09536 52.9235 3.94103 53.309 2.38273C53.8257 0.292651 52.846 0.0466038 50.9351 0.0466038Z" fill="#B56E39"/>
</svg>
